<?xml version="1.0" encoding="utf-8"?>
<!-- Generator: Adobe Illustrator 22.0.1, SVG Export Plug-In . SVG Version: 6.00 Build 0)  -->
<svg version="1.1" xmlns="http://www.w3.org/2000/svg" xmlns:xlink="http://www.w3.org/1999/xlink" x="0px" y="0px"
	 viewBox="0 0 992 271" style="enable-background:new 0 0 992 271;" xml:space="preserve">
<style type="text/css">
	.st0{fill:#0094CF;}
	.st1{opacity:0.5;fill:#FFFFFF;}
	.st2{fill:#212447;}
	.st3{opacity:0.7;fill:#FFFFFF;}
	.st4{fill:#FFFFFF;}
	.st5{fill:#FDFFFF;}
	.st6{fill:#F4F9F9;}
	.st7{fill:#08B1C4;}
</style>
<g id="Capa_2">
	<rect x="-28" y="-102" class="st0" width="1056" height="458"/>
</g>
<g id="Layer_1">
	<path class="st1" d="M-36.1,292.8c70.2,6.6,54.2-94.8,122.3-130.9s63.5-30.7,96-34.5c18.1,3.7,34.8-23.6,51.1-27.8
		s24.1-10.7,26.9-10.2s14.9,9.7,17.6,9.7s28.8-22.7,63.6-24.6s69.6,41.3,84,41.3s40.8-9.2,47.3-9.2s11.1,3.7,13.9,3.7
		s8.4-6.5,11.6-6.5c17.2,0,19,19,36.7,19.5c17.6,0.5,32.5-36.2,41.3-36.7s13.7-7.4,26.5-7.4c11.7,0,23.1,13.5,38.1,13.5
		c14.5,0,19.9,14.9,31.6,14.9c21.5,0,29.9-6.2,44.6-4.2c20.3,2.8,32.9,15.3,52.4,15.3c14.7,0,22.2,11.1,35.7,11.1
		c34.5-0.3,52.5,51.2,89,55.7s18.5,75,99,87"/>
	<path class="st2" d="M805,260.6H140.1"/>
	<path class="st3" d="M273.4,217.7l41.8-35v-8.4h13.5v3.7h4.2v-7.4h17.7v0.8h-3.2v2.8h6.2v-5.6H348v-1.2h3.1v-6.8h8.4v6.5h4.6v-2.8
		h4.6v-1.1h4.4v1.9h6v2.1h5.1V161h3.7v-2.3h4.6v1.2h3.1v-5.2h7.7v6.8h2.8v5.9h2.6v1.1h-2.3v1.5h4.6v1.4h5.7v-2.3h6.4v3.6h3.7v0.8
		h2.8v0.9h7.7v5.4h5.9v2.6l1,132.9h-170C274.2,315.3,273.6,217.5,273.4,217.7z"/>
	<path class="st3" d="M976.6,395.5H806.5l1-132.9V260h5.9v-5.4h7.7v-0.9h2.8v-0.8h3.7v-3.6h6.4v2.3h5.7v-1.4h4.6v-1.5H842v-1.1h2.6
		v-5.9h2.8v-6.8h7.7v5.2h3.1v-1.2h4.6v2.3h3.7v6.2h5.1v-2.1h6v-1.9h4.4v1.1h4.6v2.8h4.6v-6.5h8.4v6.8h3.1v1.2h-5.4v5.6h6.2v-2.8
		h-3.2v-0.8H918v7.4h4.2v-3.7h13.5v8.4l41.8,35C977.2,297.7,976.6,395.6,976.6,395.5z"/>
	<polygon class="st4" points="199.9,161.3 453.4,203.5 452.8,207.1 198.9,164.8 	"/>
	<g>
		<path class="st4" d="M390.2,198.6h-19.5l-6.5,19l1.4,2.9l0.5,1.1l4.6,9.4h19.5l4.6-9.4l0.5-1.1l1.4-2.9L390.2,198.6z M379,228
			h-5.9l-2.9-6.2h8.8V228L379,228z M379,220.5h-9.3l-1.3-3l4.8-14.9h5.9v17.9H379z M387.7,228h-5.9v-6.2h8.8L387.7,228z
			 M391.1,220.5h-9.3v-18h5.9l4.8,14.9L391.1,220.5z"/>
		<rect x="375.9" y="194.2" class="st4" width="9" height="5.2"/>
	</g>
	<path class="st5" d="M28.8,272.6v-10.3l7-7v-5.7h20.9v-7H76v-3.3h10.3v-18.5h11.5v-14.4h6.6v-4.1h14.4v-6.2h14.8v-4.5h6.6v-17.7
		h14.6v-6.5h5.6v-3.7h7.7v-2.5h-2.8V156h6.8c0-0.1,1.9-0.9,0.9-0.9h5v3.1h2.5v4h1.9V156h3.7l2.5,2.1v2.1h3.7v-3.7h4.6v2.1h5.2v5.2
		h2.8v2.8h5.2v3.1h9v5h6.2v3.4h4.6v-2.8h3.1v5.6h5.2v3.1h8.4v5h7.1v1.9h-2.8v2.8h5.6v2.5h9.1v5.6h4.4l4,4v5.6h13v5.6h18v4.4h4v2.1
		h6.2v3.4h2.1v-6.2h4.4v8.6h9.9v3.7l13.9,13.9v11.2h39l25.2,25.2v29.1H140"/>
	<polygon class="st1" points="647.1,272.4 664.4,202 676,202 676,163 695,163 695,208.4 698.2,208.4 698.2,152.8 710.3,152.8 
		710.3,181.6 726.1,181.6 726.1,195.5 741.9,195.5 741.9,226.5 751.1,226.5 751.1,170.4 769.2,170.4 769.2,214.5 782.7,214.5 
		782.7,156 796.6,156 796.6,176.5 804.8,176.5 805,272.1 	"/>
	<polygon class="st6" points="804.8,271.9 434.9,271.9 444.1,109.9 472,61.7 472,204 477.6,204 477.6,69.7 493,110.6 498.6,237.7 
		500.9,237.7 500.9,178.3 518,178.3 518,171.4 536.1,171.4 536.1,130 566.3,130 566.3,204.7 571.9,204.7 571.9,145.8 580.2,145.8 
		580.2,139.3 586.7,139.3 586.7,134.7 592.3,134.7 592.3,145.8 594.6,145.8 594.6,179.2 610.9,179.2 610.9,220.5 615,220.5 
		615,231.2 635.9,231.2 635.9,150 670.2,150 670.2,246.5 703.5,246.5 703.5,240.7 765.7,240.7 765.7,252.2 804.8,252.2 804.8,258.3 
		837.6,258.3 837.6,264.4 869.6,264.4 869.6,275.1 	"/>
	<path class="st7" d="M105.4,273.7l-0.3-38.9c0,0-7.2-3.8-14.7,2.3c3.5-6.6,10.2-6.8,10.2-6.8s-8.1-4.4-13.1,0
		c5.6-6.2,11.3-4.3,14.3-3.3c-4.2-1.5-9.5-4.7-12.4-2.7c6.4-5.1,13-0.1,14.8,1.4c0,0-1.3-4.2-4.7-4.9c4.1,0.3,6.3,2.9,6.7,4.8
		c0.9-1.2,2.1-4.6,5.2-4.8c-2.9,2.7-3.6,4.8-3.6,4.8s6.8-7.4,13-3.6c-5.3-0.5-10.7,5-10.7,5s7.9-5.3,15,3.3c-6.8-5.1-13.9,0-13.9,0
		s6.4-0.1,9.2,6.8c-7.2-6.3-13.3-2.3-13.3-2.3v38.9L105.4,273.7C105.4,273.6,105.4,273.7,105.4,273.7z"/>
</g>
</svg>
